<svg width="24" height="24" viewBox="0 0 24 24" fill="none" xmlns="http://www.w3.org/2000/svg">
<path fill-rule="evenodd" clip-rule="evenodd" d="M3.52439 9.85685C3.87872 5.55824 7.47087 2.25 11.7841 2.25H12.216C16.5292 2.25 20.1213 5.55824 20.4757 9.85685C20.666 12.166 19.9527 14.4589 18.4861 16.2526L13.693 22.1144C12.818 23.1845 11.1821 23.1845 10.307 22.1144L5.51399 16.2526C4.04733 14.4589 3.33405 12.166 3.52439 9.85685ZM11.7841 3.75C8.25152 3.75 5.30952 6.45948 5.01932 9.98008C4.8609 11.9019 5.45455 13.8102 6.67521 15.3031L11.4683 21.1649C11.7431 21.501 12.2569 21.501 12.5318 21.1649L17.3248 15.3031C18.5455 13.8102 19.1391 11.9019 18.9807 9.98008C18.6905 6.45948 15.7485 3.75 12.216 3.75H11.7841Z" fill="black"/>
<path d="M13 17C13 17.5523 12.5523 18 12 18C11.4477 18 11 17.5523 11 17C11 16.4477 11.4477 16 12 16C12.5523 16 13 16.4477 13 17Z" fill="black"/>
<path fill-rule="evenodd" clip-rule="evenodd" d="M12 8.75C11.0533 8.75 10.25 9.54542 10.25 10.5714C10.25 10.9856 9.91424 11.3214 9.50003 11.3214C9.08581 11.3214 8.75003 10.9856 8.75003 10.5714C8.75003 8.75711 10.1853 7.25 12 7.25C13.8147 7.25 15.25 8.75711 15.25 10.5714C15.25 12.0024 14.3618 13.2348 13.0981 13.6983C12.9736 13.744 12.8724 13.8138 12.8112 13.8818C12.7541 13.9455 12.75 13.9844 12.75 14C12.75 14.4142 12.4142 14.75 12 14.75C11.5858 14.75 11.25 14.4142 11.25 14C11.25 13.0764 11.9935 12.5057 12.5816 12.29C13.2531 12.0438 13.75 11.3747 13.75 10.5714C13.75 9.54542 12.9467 8.75 12 8.75Z" fill="black"/>
</svg>
