<svg width="24" height="24" viewBox="0 0 24 24" fill="none" xmlns="http://www.w3.org/2000/svg">
<path fill-rule="evenodd" clip-rule="evenodd" d="M11.2308 3.57296C6.91808 3.96159 3.53846 7.58612 3.53846 12C3.53846 16.6732 7.32682 20.4615 12 20.4615C14.3809 20.4615 16.5318 19.4789 18.0702 17.8949L11.5165 12.5983C11.3358 12.4522 11.2308 12.2323 11.2308 12V3.57296ZM12.7692 3.57296V11.2308H20.427C20.0612 7.17143 16.8286 3.93876 12.7692 3.57296ZM20.4271 12.7692H14.1756L19.038 16.699C19.8033 15.5553 20.2969 14.2151 20.4271 12.7692ZM2 12C2 6.47715 6.47715 2 12 2C17.5228 2 22 6.47715 22 12C22 14.3807 21.1671 16.569 19.7775 18.2863C17.9454 20.5503 15.1417 22 12 22C6.47715 22 2 17.5228 2 12Z" fill="black"/>
</svg>
